<svg width="127" height="32" viewBox="0 0 127 32" fill="none" xmlns="http://www.w3.org/2000/svg">
<path d="M8 13.0963C9.06667 8.82961 11.7333 6.69628 16 6.69628C22.4 6.69628 23.2 11.4963 26.4 12.2963C28.5333 12.8296 30.4 12.0296 32 9.89628C30.9333 14.1629 28.2667 16.2963 24 16.2963C17.6 16.2963 16.8 11.4963 13.6 10.6963C11.4667 10.1629 9.6 10.9629 8 13.0963ZM0 22.6963C1.06667 18.4296 3.73333 16.2963 8 16.2963C14.4 16.2963 15.2 21.0963 18.4 21.8963C20.5333 22.4296 22.4 21.6296 24 19.4963C22.9333 23.7629 20.2667 25.8963 16 25.8963C9.6 25.8963 8.8 21.0963 5.6 20.2963C3.46667 19.7629 1.6 20.5629 0 22.6963Z" fill="white"/>
<path d="M45.0977 8.78125L48.75 19.0938L52.3828 8.78125H56.2305V23H53.291V19.1133L53.584 12.4043L49.7461 23H47.7344L43.9062 12.4141L44.1992 19.1133V23H41.2695V8.78125H45.0977ZM63.4668 23.1953C61.9173 23.1953 60.6543 22.7201 59.6777 21.7695C58.7077 20.819 58.2227 19.5527 58.2227 17.9707V17.6973C58.2227 16.6361 58.4277 15.6888 58.8379 14.8555C59.248 14.0156 59.8275 13.3711 60.5762 12.9219C61.3314 12.4661 62.1908 12.2383 63.1543 12.2383C64.5996 12.2383 65.7357 12.694 66.5625 13.6055C67.3958 14.5169 67.8125 15.8092 67.8125 17.4824V18.6348H61.084C61.1751 19.3249 61.4486 19.8783 61.9043 20.2949C62.3665 20.7116 62.9492 20.9199 63.6523 20.9199C64.7396 20.9199 65.5892 20.526 66.2012 19.7383L67.5879 21.291C67.1647 21.89 66.5918 22.3587 65.8691 22.6973C65.1465 23.0293 64.3457 23.1953 63.4668 23.1953ZM63.1445 14.5234C62.5846 14.5234 62.1289 14.7122 61.7773 15.0898C61.4323 15.4674 61.2109 16.0078 61.1133 16.7109H65.0391V16.4863C65.026 15.8613 64.8568 15.3796 64.5312 15.041C64.2057 14.696 63.7435 14.5234 63.1445 14.5234ZM68.9844 17.6387C68.9844 15.9915 69.3522 14.6797 70.0879 13.7031C70.8301 12.7266 71.8424 12.2383 73.125 12.2383C74.1536 12.2383 75.0033 12.6224 75.6738 13.3906V8H78.5059V23H75.957L75.8203 21.877C75.1172 22.7559 74.2122 23.1953 73.1055 23.1953C71.862 23.1953 70.8626 22.707 70.1074 21.7305C69.3587 20.7474 68.9844 19.3835 68.9844 17.6387ZM71.8066 17.8438C71.8066 18.8333 71.9792 19.5918 72.3242 20.1191C72.6693 20.6465 73.1706 20.9102 73.8281 20.9102C74.7005 20.9102 75.3158 20.5423 75.6738 19.8066V15.6367C75.3223 14.901 74.7135 14.5332 73.8477 14.5332C72.487 14.5332 71.8066 15.6367 71.8066 17.8438ZM83.6719 23H80.8398V12.4336H83.6719V23ZM80.6738 9.69922C80.6738 9.27604 80.8138 8.92773 81.0938 8.6543C81.3802 8.38086 81.7676 8.24414 82.2559 8.24414C82.7376 8.24414 83.1217 8.38086 83.4082 8.6543C83.6947 8.92773 83.8379 9.27604 83.8379 9.69922C83.8379 10.1289 83.6914 10.4805 83.3984 10.7539C83.112 11.0273 82.7311 11.1641 82.2559 11.1641C81.7806 11.1641 81.3965 11.0273 81.1035 10.7539C80.8171 10.4805 80.6738 10.1289 80.6738 9.69922ZM92.1289 23C91.9987 22.7461 91.9043 22.4303 91.8457 22.0527C91.1621 22.8145 90.2734 23.1953 89.1797 23.1953C88.1445 23.1953 87.2852 22.8958 86.6016 22.2969C85.9245 21.6979 85.5859 20.9427 85.5859 20.0312C85.5859 18.9115 85.9993 18.0521 86.8262 17.4531C87.6595 16.8542 88.8607 16.5514 90.4297 16.5449H91.7285V15.9395C91.7285 15.4512 91.6016 15.0605 91.3477 14.7676C91.1003 14.4746 90.7064 14.3281 90.166 14.3281C89.6908 14.3281 89.3164 14.4421 89.043 14.6699C88.776 14.8978 88.6426 15.2103 88.6426 15.6074H85.8203C85.8203 14.9954 86.0091 14.429 86.3867 13.9082C86.7643 13.3874 87.2982 12.9805 87.9883 12.6875C88.6784 12.388 89.4531 12.2383 90.3125 12.2383C91.6146 12.2383 92.6465 12.5671 93.4082 13.2246C94.1764 13.8757 94.5605 14.7936 94.5605 15.9785V20.5586C94.5671 21.5612 94.707 22.3197 94.9805 22.834V23H92.1289ZM89.7949 21.0371C90.2116 21.0371 90.5957 20.946 90.9473 20.7637C91.2988 20.5749 91.5592 20.3242 91.7285 20.0117V18.1953H90.6738C89.2611 18.1953 88.5091 18.6836 88.418 19.6602L88.4082 19.8262C88.4082 20.1777 88.5319 20.4674 88.7793 20.6953C89.0267 20.9232 89.3652 21.0371 89.7949 21.0371ZM101.895 23V8.78125H106.27C107.52 8.78125 108.636 9.06445 109.619 9.63086C110.609 10.1908 111.38 10.9915 111.934 12.0332C112.487 13.0684 112.764 14.2467 112.764 15.5684V16.2227C112.764 17.5443 112.49 18.7194 111.943 19.748C111.403 20.7767 110.638 21.5742 109.648 22.1406C108.659 22.707 107.542 22.9935 106.299 23H101.895ZM104.824 11.1543V20.6465H106.24C107.386 20.6465 108.262 20.2721 108.867 19.5234C109.473 18.7747 109.782 17.7038 109.795 16.3105V15.5586C109.795 14.1133 109.495 13.0195 108.896 12.2773C108.298 11.5286 107.422 11.1543 106.27 11.1543H104.824ZM114.902 23V8.78125H119.883C121.608 8.78125 122.917 9.11328 123.809 9.77734C124.701 10.4349 125.146 11.4017 125.146 12.6777C125.146 13.3743 124.967 13.9896 124.609 14.5234C124.251 15.0508 123.753 15.4382 123.115 15.6855C123.844 15.8678 124.417 16.2357 124.834 16.7891C125.257 17.3424 125.469 18.0195 125.469 18.8203C125.469 20.1875 125.033 21.2227 124.16 21.9258C123.288 22.6289 122.044 22.987 120.43 23H114.902ZM117.832 16.8086V20.6465H120.342C121.032 20.6465 121.569 20.4837 121.953 20.1582C122.344 19.8262 122.539 19.3704 122.539 18.791C122.539 17.4889 121.865 16.8281 120.518 16.8086H117.832ZM117.832 14.7383H120C121.478 14.7122 122.217 14.123 122.217 12.9707C122.217 12.3262 122.028 11.8639 121.65 11.584C121.279 11.2975 120.69 11.1543 119.883 11.1543H117.832V14.7383Z" fill="white"/>
</svg>
